<svg width="0" height="0" class="hidden">
  <symbol xmlns="http://www.w3.org/2000/svg" viewBox="0 0 512 512" id="help-circle">
    <title>ionicons-v5-e</title>
    <path d="M256 64C150 64 64 150 64 256s86 192 192 192 192-86 192-192S362 64 256 64zm-6 304a20 20 0 1 1 20-20 20 20 0 0 1-20 20zm33.44-102C267.23 276.88 265 286.85 265 296a14 14 0 0 1-28 0c0-21.91 10.08-39.33 30.82-53.26C287.1 229.8 298 221.6 298 203.57c0-12.26-7-21.57-21.49-28.46-3.41-1.62-11-3.2-20.34-3.09-11.72.15-20.82 2.95-27.83 8.59C215.12 191.25 214 202.83 214 203a14 14 0 1 1-28-1.35c.11-2.43 1.8-24.32 24.77-42.8 11.91-9.58 27.06-14.56 45-14.78 12.7-.15 24.63 2 32.72 5.82C312.7 161.34 326 180.43 326 203.57c0 33.83-22.61 49.02-42.56 62.43z"></path>
  </symbol>
  <symbol xmlns="http://www.w3.org/2000/svg" viewBox="0 0 512 512" id="person-outline">
    <title>ionicons-v5-j</title>
    <path d="M344 144c-3.92 52.87-44 96-88 96s-84.15-43.12-88-96c-4-55 35-96 88-96s92 42 88 96z" fill="none" stroke="#000" stroke-linecap="round" stroke-linejoin="round" stroke-width="32"></path>
    <path d="M256 304c-87 0-175.3 48-191.64 138.6C62.39 453.52 68.57 464 80 464h352c11.44 0 17.62-10.48 15.65-21.4C431.3 352 343 304 256 304z" fill="none" stroke="#000" stroke-miterlimit="10" stroke-width="32"></path>
  </symbol>
  <symbol xmlns="http://www.w3.org/2000/svg" viewBox="0 0 512 512" id="cart-outline">
    <title>ionicons-v5-d</title>
    <circle cx="176" cy="416" r="16" fill="none" stroke="#000" stroke-linecap="round" stroke-linejoin="round" stroke-width="32"></circle>
    <circle cx="400" cy="416" r="16" fill="none" stroke="#000" stroke-linecap="round" stroke-linejoin="round" stroke-width="32"></circle>
    <path fill="none" stroke="#000" stroke-linecap="round" stroke-linejoin="round" stroke-width="32" d="M48 80h64l48 272h256"></path>
    <path d="M160 288h249.44a8 8 0 0 0 7.85-6.43l28.8-144a8 8 0 0 0-7.85-9.57H128" fill="none" stroke="#000" stroke-linecap="round" stroke-linejoin="round" stroke-width="32"></path>
  </symbol>
  <symbol xmlns="http://www.w3.org/2000/svg" viewBox="0 0 512 512" id="heart-outline">
    <title>ionicons-v5-f</title>
    <path d="M352.92 80C288 80 256 144 256 144s-32-64-96.92-64c-52.76 0-94.54 44.14-95.08 96.81-1.1 109.33 86.73 187.08 183 252.42a16 16 0 0 0 18 0c96.26-65.34 184.09-143.09 183-252.42-.54-52.67-42.32-96.81-95.08-96.81z" fill="none" stroke="#000" stroke-linecap="round" stroke-linejoin="round" stroke-width="32"></path>
  </symbol>
  <symbol xmlns="http://www.w3.org/2000/svg" viewBox="0 0 512 512" id="chevron-down-outline">
    <title>ionicons-v5-a</title>
    <path fill="none" stroke="#000" stroke-linecap="round" stroke-linejoin="round" stroke-width="48" d="M112 184l144 144 144-144"></path>
  </symbol>
  <symbol xmlns="http://www.w3.org/2000/svg" viewBox="0 0 512 512" id="trending-down">
    <title>ionicons-v5-c</title>
    <path fill="none" stroke="#000" stroke-linecap="round" stroke-linejoin="round" stroke-width="32" d="M352 368h112V256"></path>
    <path d="M48 144l121.37 121.37a32 32 0 0 0 45.26 0l50.74-50.74a32 32 0 0 1 45.26 0L448 352" fill="none" stroke="#000" stroke-linecap="round" stroke-linejoin="round" stroke-width="32"></path>
  </symbol>
  <symbol xmlns="http://www.w3.org/2000/svg" viewBox="0 0 512 512" id="rocket">
    <title>ionicons-v5-p</title>
    <path d="M328.85 156.79a26.69 26.69 0 1 0 18.88 7.81 26.6 26.6 0 0 0-18.88-7.81z"></path>
    <path d="M477.44 50.06a.29.29 0 0 1 0-.09 20.4 20.4 0 0 0-15.13-15.3c-29.8-7.27-76.68.48-128.63 21.28-52.36 21-101.42 52-134.58 85.22A320.7 320.7 0 0 0 169.55 175c-22.33-1-42 2.18-58.57 9.41-57.74 25.41-74.23 90.44-78.62 117.14a25 25 0 0 0 27.19 29h.13l64.32-7.02c.08.82.17 1.57.24 2.26a34.36 34.36 0 0 0 9.9 20.72l31.39 31.41a34.27 34.27 0 0 0 20.71 9.91l2.15.23-7 64.24v.13A25 25 0 0 0 206 480a25.25 25.25 0 0 0 4.15-.34C237 475.34 302 459.05 327.34 401c7.17-16.46 10.34-36.05 9.45-58.34a314.78 314.78 0 0 0 33.95-29.55c33.43-33.26 64.53-81.92 85.31-133.52 20.69-51.36 28.48-98.59 21.39-129.53zM370.38 224.94a58.77 58.77 0 1 1 0-83.07 58.3 58.3 0 0 1 0 83.07z"></path>
    <path d="M161.93 386.44a16 16 0 0 0-11 2.67c-6.39 4.37-12.81 8.69-19.29 12.9-13.11 8.52-28.79-6.44-21-20l12.15-21a16 16 0 0 0-15.16-24.91A61.25 61.25 0 0 0 72 353.56c-3.66 3.67-14.79 14.81-20.78 57.26A357.94 357.94 0 0 0 48 447.59 16 16 0 0 0 64 464h.4a359.87 359.87 0 0 0 36.8-3.2c42.47-6 53.61-17.14 57.27-20.8a60.49 60.49 0 0 0 17.39-35.74 16 16 0 0 0-13.93-17.82z"></path>
  </symbol>
  <symbol xmlns="http://www.w3.org/2000/svg" viewBox="0 0 512 512" id="search-outline">
    <title>ionicons-v5-f</title>
    <path d="M221.09 64a157.09 157.09 0 1 0 157.09 157.09A157.1 157.1 0 0 0 221.09 64z" fill="none" stroke="#000" stroke-miterlimit="10" stroke-width="32"></path>
    <path fill="none" stroke="#000" stroke-linecap="round" stroke-miterlimit="10" stroke-width="32" d="M338.29 338.29L448 448"></path>
  </symbol>
  <symbol viewBox="0 0 100 90" xmlns="http://www.w3.org/2000/svg" id="logo">
    <title>koro-logo</title>
    <g fill-rule="evenodd">
      <path d="M33.305 78.797c1.067-.31.91-.19 2.233-.606.745-.235 1.465-.548 2.196-.829.35-.132.676-.202.993-.079a.837.837 0 0 0 .487.01c1.836-.589 1.336-.233 3.126-.966.213-.087 5.928-1.907 6.394-2.06.515-.174 1.044-.313 1.549-.503 1.868-.708 3.798-1.183 5.713-1.714.755-.21 1.507-.43 2.26-.649.47-.135.914-.29 1.18-.666.075-.102 4.756-1.642 4.917-1.7.282-.1.579-.21.865-.248 1.072-.142 2.094-.515 3.134-.814 1.81-.52 3.635-.793 5.443-.95.804-.073 1.58.034 2.364.075.446.022.88.076 1.32.115.834.077 1.688.06 2.586-.145.233-.05.469-.072.704-.103.144-.02.318.116.278.22-.064.17-.125.338-.202.506-.34.747-.996 1.267-2.068 1.483-.88.175-1.724.57-2.62.634-.933.416-1.911.68-2.901.923a1.652 1.652 0 0 0-.616.325c-.318.26-.68.424-1.093.546a15.6 15.6 0 0 0-2.192.822c-.378.176-.77.34-1.168.473-.978.323-1.908.713-2.755 1.241-.05.03-.1.062-.155.086-1.944.788-3.89 1.591-5.932 2.113-.884.228-1.703.546-2.525.893a.156.156 0 0 0-.082.105c-.004.04-9.49 3.02-9.635 3.054-.582.137-1.167.267-1.745.43-1.333.368-2.646.82-3.995 1.13a4.339 4.339 0 0 0-.85.286c-.657.314-1.356.494-2.05.696-.693.202-1.39.394-2.086.592-.232.064-.47.167-.695.188-1.257.127-2.436.63-3.644.98-.58.167-1.141.34-1.74.41-.611.067-1.057.52-1.642.682-.348.1-.698.187-1.05.275-.523.132-1.05.251-1.571.391-.523.143-1.038.288-1.575.345a6.537 6.537 0 0 0-1.228.26c-2.036.638-4.083.876-6.127 1.14-.575.073-1.146.033-1.707.012-.537-.017-.884-.227-1.101-.555-.196-.296-.141-.499.289-.79.285-.195.594-.372.86-.577.949-.728 2.036-1.29 3.174-1.84 1.397-.677 2.823-1.276 4.265-1.87 1.054-.435 1.504-.432 2.578-.828.282-.102 1.438-.769 1.438-.769 1.138-.546 2.357-.883 3.56-1.264.863-.27 1.722-.554 2.844-.916m19.57-22.174c-.04-.771-.084-1.543-.122-2.313-.032-.655.09-1.294.292-1.904.605-1.81.816-2.453.838-3.506.045-2.186.112-9.393-.22-11.578-.202-1.331-.2-2.694-.249-4.046-.037-1.026-.009-2.056-.009-3.087 0-.255.046-.52.004-.77-.152-.9-.022-1.8-.062-2.692-.08-1.81.015-8.316.227-10.112.128-1.083.057-2.187.153-3.276.146-1.664.266-3.336.775-4.948.095-.302.122-.625.173-.941.026-.164-.219-.37-.389-.336-.634.13-1.245.29-1.813.642-1.045.643-1.203.247-2.233.915-.813.525-1.648 1.014-2.463 1.533-.59.376.497-.833.1-.223-.394.603-.436.61-1.008 1.046-.518.396-.945.876-1.155 1.52-.153.468-.494.735-.99.805-.128.017-.255.075-.38.073-.832-.017-1.472.302-2.01.945-.353.424-.903.465-1.442.353-.236-.05-.473-.388-.379-.561.215-.395.394-.816.651-1.184.37-.527.781-1.027 1.2-1.516.755-.886-.139-.108.634-.976 1.465-1.644 2.63-2.634 4.35-4.008.554-.442 1.125-.863 1.685-1.297 1.898-1.475 3.013-1.705 5.231-2.648 1.981-.842 4.064-1.317 6.124-1.882.434-.12.894-.147 1.344-.205.515-.063 1.054-.038 1.543-.181 1.41-.413 2.835-.25 4.241-.122 1.85.168 3.485.877 4.847 2.208.968.946 1.982 1.83 2.611 3.059.291.57.89.93 1.151 1.539.228.53.51 1.038.747 1.567.232.513.796.889.666 1.556.22.465.455.923.65 1.399.094.233.114.5.16.753.07.378.098.766.203 1.135.378 1.324.285 2.68.325 4.027.01.315-.088.633-.129.954-.074.572-.19 5.863-.2 6.438a6.353 6.353 0 0 1-.54 2.43c-.237.545-.409 1.077-.426 1.665-.004.128-.014.27-.076.375-.857 1.433-1.283 3.08-2.268 4.445-.148.205-.33.394-.524.558-1.327 1.124-2.586 2.339-4.203 3.074-.172.078-.314.227-.463.35-.786.659-1.283.612-.567 2.052.142.284.22.6.33.902.245.669.553 1.309 1.017 1.853.937 1.102 1.535 2.37 1.997 3.72.102.299.58.692.795.905 1.066 1.049 1.865 2.503 2.816 3.383.282.26.574.537.76.864.456.799.572.815 1.406 1.515.988.83 2.01 1.628 3.065 2.374.842.598 1.71 1.19 2.646 1.612 1.24.559 2.564.922 3.951.902a4.696 4.696 0 0 0 1.887-.411c1.66-.763 4.171-3.437 5.495-4.691.952-.901 1.685-3.626 2.123-4.87.027-.08.184-.124.29-.155.031-.011.117.069.136.125.107.3.246.598.29.91.176 1.224-.202 4.1-.166 5.319-.49 1.402-1.943 4.496-3.298 5.383-.645.422-1.317.83-1.76 1.494-1.699 1.214-3.503 2.232-5.586 2.598-.885.154-1.813.162-2.715.113-3.99-.213-5.848.078-9.059-2.27-2.037-1.49-6.595-6.431-6.826-6.74-1.468-1.96-2.779-4.996-3.873-6.972-1.278-2.313-2.584-4.612-3.607-7.051-.168-.4-.426-.628-.83-.725-.166-.04-.44.113-.443.259-.029 1.606-.428 8.214-.237 9.829-.155.893-.217 1.799-.077 2.687.264 1.667-.042 5.014.138 6.68.027.248-.055.506-.085.76-.066.576-.183 1.152-.185 1.727-.003.863-.24 1.625-.657 2.384-.485.88-.514 1.315-1.927 1.062a2.17 2.17 0 0 0-.775.004c-.888.17-1.494-.263-2.02-.886a5.786 5.786 0 0 1-1.153-2.203c-.357-1.255-.41-4.211-.468-5.494m9.245-50.42v.01c-.647.034-1.294.056-1.939.105-.449.034-.688.258-.774.72-.128.692-.324 1.389-.187 2.096.198 1.02.105 2.042.082 3.067-.015.698-.013 1.396-.084 2.09.415.975.116 2.047.428 3.034.066 1.6.134 7.917.193 9.518.005.124-.057.25-.084.376-.11.529.028 1.018.254 1.493.112.233.236.449.513.539.308.098.628.185.908.34 1.073.588 2.203 1.098 2.836 2.252.203.369.667.353 1.003.05.825-.738 1.503-1.611 2.075-2.538.642-1.041 1.362-2.182 1.415-3.435.08-1.93.317-8.561.502-10.48.112-1.161.025-2.31-.099-3.463-.148-1.375-.9-2.612-1.612-3.777-.837-1.37-2.037-2.126-3.684-2.085-.583.016-1.164.06-1.746.089M1.005 64.39c.054-1.185.156-.987.174-2.468.011-.833-.115-1.668-.182-2.503-.032-.399.024-.753.371-1.034.134-.107.255-.323.256-.49.007-2.059.304-3.109.068-5.166-.028-.245-.11.161-.242-.044-.418-.649-.884-1.27-1.307-1.915-.135-.206-.204-1.099-.074-1.384.452-.993.838-1.35 1.297-2.342.224-.482.335-.965.326-1.49-.01-.578.04-1.16-.003-1.737-.162-2.13.067-4.246.2-6.366.051-.835.087-1.672.125-2.508.024-.524.006-1.025-.439-1.42-.122-.11-.168-5.37-.177-5.554-.016-.318-.034-.656.05-.96.311-1.136.246-2.296.302-3.45.1-2.01.584-3.95 1.24-5.84.29-.839.84-1.592 1.291-2.373.258-.444.555-.867.836-1.3.532-.82.928-1.693 1.062-2.674.034-.253.121-.5.188-.748.041-.153.34-.284.478-.21.227.122.457.241.677.373.983.593 1.46 1.432 1.257 2.592-.167.95.022 1.94-.325 2.868.177 1.085.098 2.165-.02 3.25-.027.24.07.523.194.735.241.407.315.83.297 1.29-.034.84.023 1.67.178 2.498.082.44.141.892.146 1.342.013 1.098.153 2.173.544 3.208.022.058.047.122.054.183.25 2.236.518 4.477.31 6.723-.09.973-.008 1.908.118 2.857.006.046.073.106.123.12a.312.312 0 0 0 .19-.02.323.323 0 0 0 .14-.125c1.164-1.936 2.517-3.745 3.808-5.597.037-.05.08-.102.108-.16 1.024-2.044 2.675-3.627 4.05-5.412.117-.152.271-.278.387-.434.618-.823 1.157-1.718 1.864-2.458a46.775 46.775 0 0 0 2.068-2.299c.248-.296.485-.607.69-.933 1.363-2.188 2.525-3.957 3.855-6.168.47-.779 1.07-1.45 1.61-2.174.733-.98 1.492-1.944 2.21-2.936.34-.468.677-.956.894-1.486.398-.967.968-1.803 1.64-2.6.497-.59.91-1.252 1.335-1.899.712-1.075 1.404-2.163 2.111-3.24.026-.04.123-.049.184-.044.046.003.113.043.127.082.148.415.094.881.362 1.277.09.132.075.377.03.551-.133.494-.237 1.003-.562 1.428-.65.851-.959 1.801-.85 2.878.032.33-.09.625-.325.876-.174.184-.414.373-.465.595-.135.585-.512 1.021-.77 1.53-.318.621-.764 1.19-.925 1.9-.113.498-.264 1.005-.503 1.452-.206.386-.587.676-.843 1.041-.295.421-.579.862-.79 1.328-.217.471-.47.904-.786 1.32-.266.351-.27.354-.399.776-.212.696-.604 1.276-.992 1.87-1.02 1.562-2.027 3.132-3.039 4.701-.61 1.657-1.787 2.972-2.734 4.424-.46.707-.894 1.415-1.149 2.223-.136.433-.386.8-.644 1.177-.65.954-1.145 2.013-1.914 2.89-.52 1.41-1.418 2.592-2.263 3.808a3.27 3.27 0 0 0-.28.51c-.69 1.461-1.495 2.851-2.51 4.118-.226.282-.205.59.02.885.272.358.568.702.834 1.065.303.417.631.826.864 1.28.385.75.82 1.458 1.333 2.127.23.301.406.664.527 1.024a5.649 5.649 0 0 0 1.021 1.853c.757.901 1.293 1.93 1.823 2.954 1.096 2.116 1.6 2.671 2.926 4.656.752 1.124 1.5 2.242 2.443 3.222.4.416.734.896 1.101 1.343.815.994.75 1.187 1.796 1.964.663.917 1.636 1.46 2.567 2.036a9.129 9.129 0 0 0 4.596 1.373c1.468.043 2.831-.266 4.004-1.207.2-.159.428-.288.661-.39.073-.035.291.055.295.1.027.38.133.808.002 1.136-.309.77-.596 1.568-1.14 2.222-.204.243-.433.53-.713.634-1.507.577-2.942 1.35-4.555 1.644-2.212.403-4.399.257-6.547-.35-2.784-.788-5.262-2.143-7.368-4.135a7.595 7.595 0 0 1-.648-.717c-1.35-1.649-1.83-2.482-3.207-4.108-1.988-2.347-2.63-3.559-3.783-6.367-.439-1.068-.727-2.199-1.143-3.279-.555-1.443-1.164-2.863-1.757-4.29a3.746 3.746 0 0 0-.36-.68c-.06-.089-.208-.127-.324-.163-.139-.044-.256.028-.275.188-.078.635-.166 1.274-.206 1.914-.094 1.473-.05 2.958-.243 4.428-.04.315-.044 2.325.02 2.633.155.771.084 1.54.051 2.31-.033.771-.082 1.543-.125 2.313-.014.257.024.531-.054.77-.43 1.317-.243 6.028-.305 7.371-.029.643-.042 1.27-.234 1.9-.196.646.278 1.246.24 1.896-.024.383-.063.768-.1 1.153-.059.576-.137 1.15-.178 1.728-.042.578-.07 1.147-.25 1.711a4.62 4.62 0 0 0-.214 1.332c-.029 2.278-.68 4.434-1.29 6.594-.172.611-.517 1.176-.826 1.74-.296.54-.79.82-1.403.93-.554.103-.837-.02-1.074-.555-.156-.353-.276-.725-.459-1.065-.652-1.203-.976-2.492-1.259-3.83-.348-1.644-.559-3.288-.759-4.949-.146-1.213-.304-2.423-.377-3.645-.02-.32-.023-.646-.087-.96-.276-1.338-.189-2.685-.176-4.034.01-.965.002-5.278.002-6.538"></path>
      <path d="M86.443 49.978c-1.455.252-2.847-.395-4.08-1.532-.375-.348-.735-.757-.984-1.214-.705-1.298-1.373-2.629-1.723-4.097-.222-.929-.35-1.887-.246-2.856.096-.892.195-1.777.167-2.683a5.772 5.772 0 0 1 .22-1.773c.287-.987.371-1.99.437-3.01.023-.359.003-.764.15-1.06.291-.592.23-1.278.492-1.869.24-.537.433-1.098.675-1.635a.723.723 0 0 1 .356-.347c.416-.169.804-.366 1.122-.722 1.033-1.15 2.362-1.703 3.75-2.119.477-.143.96-.263 1.443-.373.396-.09.77.022 1.105.261.184.131.357.284.521.445.294.288.622.475 1.01.582.84.234 1.494.755 1.908 1.613.074.156.186.314.32.403.126.085.335.16.45.101.294-.147.75.073.992-.16.433 0 .611.024 1.176-.626.908-1.044.7-.218 1.561-1.516.864-.735 1.37-1.25 2.227-1.996.213-.184.42-.077.448.226.045.477.122.946-.032 1.426-.04.98-.029 1.344-.04 1.697-.284 1.355-.217.646-.653 1.912-.2.955-.43 1.17-.853 1.773-.822 1.051-1.019 1.62-2.15 2.287-.72.425-.679.215-1.373.691a1.04 1.04 0 0 0-.459.903c.028 1.397-.228 2.744-.52 4.084a1.76 1.76 0 0 0 .006.88c.062.226.023.481.061.716.202 1.232-.037 2.383-.459 3.51-.207.554-.41 1.113-.556 1.69-.295 1.17-.985 1.982-1.89 2.607-.463.318-.957.586-1.41.917-.754.55-1.569.843-2.48.831-.165-.002-.33.014-.689.033M85 37.466l-.075.004c.043.828.05 1.661.142 2.485.093.822.316 1.627.405 2.45.126 1.154.651 2.147 1.042 3.191.15.4.492.73.793 1.036.597.612 1.5.545 2.044-.092a4.791 4.791 0 0 0 1.12-2.374c.195-1.188.436-2.36.78-3.506.37-1.23.556-2.474.383-3.786-.077-.589.006-1.205.01-1.807.001-.377-.003-.754-.015-1.132-.008-.255-.317-.562-.57-.548-1.667.105-3.315-.07-4.96-.374-.839-.153-1.157.154-1.2 1.068a16.16 16.16 0 0 0-.003 1.357c.024.677.068 1.352.104 2.028m1.856-9.27c-.455-.004-.679.3-.605.706.192 1.054.99 1.552 1.99 1.225.071-.022.168-.22.142-.274a4.946 4.946 0 0 0-1.148-1.51c-.117-.102-.3-.119-.379-.147M31.049 54.737c-.238-1.292-.1-2.767-.088-4.241.005-.77.01-1.54-.008-2.31-.03-1.291.037-2.565.41-3.795.223-.73.386-1.467.363-2.254-.024-.86.239-1.636.642-2.355.365-.651.716-1.316 1.128-1.933.762-1.135 1.62-2.156 2.886-2.682.373-.158.725-.434 1.017-.735.764-.79 1.716-1.061 2.722-1.21.234-.033.473-.021.708-.047.467-.048.94-.2 1.397-.141.61.075 1.007.66 1.512 1.002.719.482 1.312 1.12 1.799 1.872.138.212.245.49.434.61.853.543.972 1.38.942 2.32-.01.313.086.633.139.95.025.148.286.299.422.26.753-.211 1.379-.676 2.005-1.142.109-.081.395.018.46.153.055.115.137.222.16.34.05.25.05.516.109.764.285 1.22-.213 2.1-.995 2.858-.48.465-.98.906-1.442 1.392-.302.315-.48.72-.394 1.212.2 1.157.146 2.3-.073 3.436a5.103 5.103 0 0 0 .013 2.099c.172.767.089 1.526-.1 2.279-.17.677-.323 1.36-.427 2.054-.142.948-.382 1.875-.526 2.814-.176 1.16-.756 1.993-1.507 2.716-1.983 1.909-4.39 2.71-7.01 2.555-2.48-.15-4.39-1.5-5.516-4.008-.518-1.153-.994-3.075-1.182-4.833m6.145-1.13c.022 1.254.424 2.478.85 3.686.399 1.132 1.096 1.994 2.155 2.47.348.158.69.159 1.04.044.716-.234 1.236-.74 1.56-1.448.814-1.771 1.538-3.581 1.682-5.605.032-.45.049-.907.157-1.332.314-1.245.31-2.538.477-3.802.057-.433-.028-.893-.067-1.337-.021-.234-.306-.476-.51-.446-.407.056-.818.105-1.22.199-1.778.409-3.516.309-5.203-.566-.322-.167-.655-.308-.985-.457-.23-.101-.451.084-.464.382-.008.194-.048.39-.022.575a10.267 10.267 0 0 1-.09 3.436 3.71 3.71 0 0 0 .193 2.085c.276.674.319 1.368.447 2.116m4.198-18.337c-.68.087-1.242.465-1.442 1.017a15.62 15.62 0 0 0-.472 1.629c-.042.17-.013.384.04.559.457 1.528.575 1.653 1.992 2.14.675.232 1.354.453 2.034.672.168.054.346.079.52.104.474.075.92-.422.845-.952a3.418 3.418 0 0 0-.174-.736c-.228-.595-.48-1.178-.726-1.763-.074-.175-.134-.374-.254-.505a65.398 65.398 0 0 0-1.92-2.018c-.113-.116-.327-.112-.443-.147m54.898 5.689a1.85 1.85 0 0 0 1.855 1.843A1.85 1.85 0 0 0 100 40.959a1.848 1.848 0 0 0-1.855-1.842 1.848 1.848 0 0 0-1.855 1.842zm.241 0a1.61 1.61 0 0 1 1.614-1.604 1.61 1.61 0 0 1 1.614 1.604 1.61 1.61 0 0 1-1.614 1.604 1.61 1.61 0 0 1-1.614-1.604zm.779 1.014h.396V41.1h.478c.336 0 .396.162.417.43.031.372.039.419.095.442h.486v-.085c-.129-.014-.159-.1-.185-.438-.022-.295-.095-.43-.314-.496v-.02a.482.482 0 0 0 .37-.47c0-.395-.284-.604-.697-.604H97.31v2.113zm.396-1.771h.598c.224 0 .353.124.353.29 0 .168-.129.292-.353.292h-.598v-.582z"></path>
    </g>
  </symbol>
</svg>